<svg xmlns="http://www.w3.org/2000/svg" width="13.354" height="13.35" viewBox="0 0 13.354 13.35">
  <g id="Layer_2" data-name="Layer 2" transform="translate(-2.994 -2.996)">
    <path id="Path_1389" data-name="Path 1389" d="M3.511,16.346a.513.513,0,0,1-.364-.878L15.467,3.147a.515.515,0,0,1,.729.729L3.875,16.2A.513.513,0,0,1,3.511,16.346Z" transform="translate(0 0)" fill="#1d1d1d"/>
    <path id="Path_1390" data-name="Path 1390" d="M15.832,16.346a.513.513,0,0,1-.364-.149L3.147,3.876a.515.515,0,0,1,.729-.729L16.2,15.468a.513.513,0,0,1-.364.878Z" transform="translate(-0.001 0)" fill="#1d1d1d"/>
  </g>
</svg>
