<svg xmlns="http://www.w3.org/2000/svg" xmlns:xlink="http://www.w3.org/1999/xlink" width="35" height="36" viewBox="0 0 35 36">
  <defs>
    <linearGradient id="linear-gradient" x1="0.5" x2="0.5" y2="1" gradientUnits="objectBoundingBox">
      <stop offset="0" stop-color="#f2f2f2"/>
      <stop offset="1" stop-color="#d8d8d8"/>
    </linearGradient>
  </defs>
  <g id="Group_12610" data-name="Group 12610" transform="translate(-316.62 -251.389)">
    <rect id="Rectangle_25" data-name="Rectangle 25" width="34" height="35" rx="4" transform="translate(317.12 251.889)" stroke="#b2b2b2" stroke-width="1" fill="url(#linear-gradient)"/>
    <g id="Group_12609" data-name="Group 12609" transform="matrix(0.966, 0.259, -0.259, 0.966, -1040.382, -348.778)">
      <g id="icons" transform="translate(1470.432 237.503) rotate(-30)">
        <path id="share" d="M26.287,8.266l-8.8-8c-.667-.667-1.466,0-1.466,1.066v4A15.9,15.9,0,0,0,1.891,14.4,20.4,20.4,0,0,0,.024,19.864c-.267,1.333,1.733,2,2.533.8a15.961,15.961,0,0,1,13.465-7.732v4.4c0,1.066.8,1.733,1.466,1.066l8.8-8A1.622,1.622,0,0,0,26.287,8.266Z" transform="translate(0 0)" fill="#349be6"/>
      </g>
    </g>
  </g>
</svg>
