<svg xmlns="http://www.w3.org/2000/svg" width="19.952" height="14.462" viewBox="0 0 19.952 14.462">
  <path id="_8674895_ic_fluent_list_regular_icon" data-name="8674895_ic_fluent_list_regular_icon" d="M2.748,17.969h12.47a.748.748,0,0,1,.1,1.49l-.1.007H2.748a.748.748,0,0,1-.1-1.49l.1-.007h0Zm0-6.484H21.2a.748.748,0,0,1,.1,1.49l-.1.007H2.748a.748.748,0,0,1-.1-1.49l.1-.007h0ZM2.748,5H18.211a.748.748,0,0,1,.1,1.49l-.1.007H2.748a.748.748,0,0,1-.1-1.49L2.748,5h0Z" transform="translate(-2 -5.003)" fill="#242424"/>
</svg>
