<svg xmlns="http://www.w3.org/2000/svg" width="37" height="37" viewBox="0 0 37 37">
  <g id="Group_18070" data-name="Group 18070" transform="translate(-1554 -46)">
    <g id="Ellipse_180" data-name="Ellipse 180" transform="translate(1554 46)" fill="#fff5ed" stroke="#ebdbcf" stroke-width="1">
      <circle cx="18.5" cy="18.5" r="18.5" stroke="none"/>
      <circle cx="18.5" cy="18.5" r="18" fill="none"/>
    </g>
    <g id="_285655_user_icon" data-name="285655_user_icon" transform="translate(1560.938 -975.9)">
      <path id="Path_8899" data-name="Path 8899" d="M12,1039.4a8.612,8.612,0,0,0-3.594.7A4.1,4.1,0,0,0,12,1042.4a4.1,4.1,0,0,0,3.594-2.3A8.615,8.615,0,0,0,12,1039.4Z" fill="#95a5a6"/>
      <path id="Path_8900" data-name="Path 8900" d="M8.406,1041.1a9.088,9.088,0,0,0-5.344,7.3,1.95,1.95,0,0,0,1.938,2H19a1.951,1.951,0,0,0,1.938-2,9.091,9.091,0,0,0-5.344-7.3A4.1,4.1,0,0,1,12,1043.4,4.1,4.1,0,0,1,8.406,1041.1Z" fill="#d35400"/>
      <path id="Path_8901" data-name="Path 8901" d="M8.406,1040.1a9.088,9.088,0,0,0-5.344,7.3,1.95,1.95,0,0,0,1.938,2H19a1.951,1.951,0,0,0,1.938-2,9.091,9.091,0,0,0-5.344-7.3A4.1,4.1,0,0,1,12,1042.4,4.1,4.1,0,0,1,8.406,1040.1Z" fill="#e67e22"/>
      <path id="Path_8902" data-name="Path 8902" d="M12,11a8.937,8.937,0,0,0-3.25.625,5.781,5.781,0,0,0,6.5,0A8.938,8.938,0,0,0,12,11Z" transform="translate(0 1028.4)" fill="#7f8c8d"/>
      <path id="Path_8903" data-name="Path 8903" d="M17,4a5,5,0,1,1-5-5,5,5,0,0,1,5,5Z" transform="translate(0 1031.4)" fill="#bdc3c7"/>
      <path id="Path_8904" data-name="Path 8904" d="M8.406,1040.1c-.317.2-.609.3-.906.5a5.137,5.137,0,0,0,4.5,2.8,5.137,5.137,0,0,0,4.5-2.8c-.3-.2-.589-.3-.906-.5A4.1,4.1,0,0,1,12,1042.4,4.1,4.1,0,0,1,8.406,1040.1Z" fill="#d35400"/>
    </g>
  </g>
</svg>
