<svg id="Layer_2" data-name="Layer 2" xmlns="http://www.w3.org/2000/svg" width="9.451" height="9.448" viewBox="0 0 9.451 9.448">
  <path id="Path_11" data-name="Path 11" d="M3.36,12.444a.363.363,0,0,1-.258-.621l8.72-8.72a.365.365,0,1,1,.516.516l-8.72,8.72A.363.363,0,0,1,3.36,12.444Z" transform="translate(-2.994 -2.996)" fill="unset"/>
  <path id="Path_12" data-name="Path 12" d="M12.081,12.444a.363.363,0,0,1-.258-.105L3.1,3.619A.365.365,0,0,1,3.619,3.1l8.72,8.72a.363.363,0,0,1-.258.621Z" transform="translate(-2.995 -2.996)" fill="unset"/>
</svg>
