<svg id="_211650_close_circled_icon_2_" data-name="211650_close_circled_icon (2)" xmlns="http://www.w3.org/2000/svg" width="16" height="16" viewBox="0 0 16 16">
  <path id="Path_1309" data-name="Path 1309" d="M40,33a8,8,0,1,0,8,8A8,8,0,0,0,40,33Zm3.868,10.7a.281.281,0,0,1,.082.2.275.275,0,0,1-.082.2l-.771.775a.278.278,0,0,1-.2.082.287.287,0,0,1-.2-.082l-2.7-2.7-2.693,2.7a.272.272,0,0,1-.2.082.287.287,0,0,1-.2-.082l-.771-.775a.281.281,0,0,1-.082-.2.275.275,0,0,1,.082-.2l2.7-2.714-2.711-2.679a.287.287,0,0,1,0-.4l.771-.775a.285.285,0,0,1,.4,0L40,39.8l2.7-2.668a.285.285,0,0,1,.4,0l.771.775a.287.287,0,0,1,0,.4l-2.711,2.679Z" transform="translate(-32 -33)" fill="#ce8c4a"/>
</svg>
