<svg xmlns="http://www.w3.org/2000/svg" width="23.542" height="22.542" viewBox="0 0 23.542 22.542">
  <g id="Group_12595" data-name="Group 12595" transform="translate(-1831.435 -110.935)">
    <g id="_3672681_chart_pie_diagram_finance_graph_icon" data-name="3672681_chart_pie_diagram_finance_graph_icon" transform="translate(1831.185 110.685)">
      <path id="Path_1374" data-name="Path 1374" d="M9.315,17.63A8.315,8.315,0,1,1,17.63,9.315H9.315Z" fill="none" stroke="#1d1d1b" stroke-linecap="round" stroke-linejoin="round" stroke-width="1.5"/>
      <line id="Line_8" data-name="Line 8" x1="6" y1="5.5" transform="translate(3.315 3.815)" fill="none" stroke="#1d1d1b" stroke-linecap="round" stroke-linejoin="round" stroke-width="1.5"/>
    </g>
    <path id="Path_1377" data-name="Path 1377" d="M16.281,10a1.056,1.056,0,0,1,1.056,1.056v3.169h3.169a1.056,1.056,0,0,1,0,2.112H17.337v3.169a1.056,1.056,0,0,1-2.112,0V16.337H12.056a1.056,1.056,0,0,1,0-2.112h3.169V11.056A1.056,1.056,0,0,1,16.281,10Z" transform="translate(1833.415 112.915)"/>
  </g>
</svg>
