<svg id="Layer_2" data-name="Layer 2" xmlns="http://www.w3.org/2000/svg" width="14.29" height="10.992" viewBox="0 0 14.29 10.992">
  <path id="Path_1141" data-name="Path 1141" d="M3.547,16.988a.549.549,0,0,0,.39-.159l4.945-4.945a.549.549,0,0,0,0-.78L3.937,6.158a.552.552,0,0,0-.78.78l4.561,4.555L3.157,16.048a.549.549,0,0,0,.39.94Z" transform="translate(5.245 -5.996)" fill="#fff"/>
  <path id="Path_1142" data-name="Path 1142" d="M3.549,16.1H16.737a.549.549,0,1,0,0-1.1H3.549a.549.549,0,1,0,0,1.1Z" transform="translate(-3 -10.053)" fill="#fff"/>
</svg>
