<svg xmlns="http://www.w3.org/2000/svg" xmlns:xlink="http://www.w3.org/1999/xlink" width="19" height="12" viewBox="0 0 19 12">
  <defs>
    <clipPath id="clip-path">
      <rect id="Rectangle_11" data-name="Rectangle 11" width="19" height="12" transform="translate(0.794 -0.404)" fill="#2b2b2b"/>
    </clipPath>
  </defs>
  <g id="_9165678_analytics_chart_icon" data-name="9165678_analytics_chart_icon" transform="translate(-0.794 0.404)" clip-path="url(#clip-path)">
    <path id="Path_1371" data-name="Path 1371" d="M19.52.34a1.029,1.029,0,0,0-.826.22,1.713,1.713,0,0,0-.385,1.282l-.628.714C17.2,3.1,16.7,3.67,16.217,4.229s-.971,1.131-1.443,1.685l-.608.713c-.055,0-.112-.005-.172-.009a1.469,1.469,0,0,0-.531.027.548.548,0,0,1-.572-.159A19.957,19.957,0,0,0,9.71,4.351.572.572,0,0,1,9.5,4.191a.578.578,0,0,1-.114-.236,1.228,1.228,0,0,0-.554-.744,1.21,1.21,0,0,0-.912-.139,1.287,1.287,0,0,0-.773.537,1.306,1.306,0,0,0-.206.923c.013.085.028.171.043.252L7,4.851,2.9,8.825l-.062-.006C2.767,8.811,2.7,8.8,2.625,8.8a1.212,1.212,0,0,0-1.313.941,1.574,1.574,0,0,0,.164,1.23,1.317,1.317,0,0,0,.445.516,1.3,1.3,0,0,0,.642.223l.069,0a1.329,1.329,0,0,0,1.1-.623A1.456,1.456,0,0,0,3.9,9.558l3.979-3.82L8.99,5.393l3.288,2.274a2.067,2.067,0,0,0,.389,1.184,1.079,1.079,0,0,0,1.3.381,1.513,1.513,0,0,0,1-1.53l3.99-5a1.668,1.668,0,0,0,1.306-.155,1.066,1.066,0,0,0,.421-.763A1.278,1.278,0,0,0,20.433.81,1.286,1.286,0,0,0,19.52.34Z" transform="translate(-0.572 -0.322)" fill="#2b2b2b"/>
  </g>
</svg>
