<svg xmlns="http://www.w3.org/2000/svg" width="18.021" height="19.391" viewBox="0 0 18.021 19.391">
  <g id="Fill" transform="translate(-2.983 -2)">
    <path id="Path_1372" data-name="Path 1372" d="M14.77,12a2.77,2.77,0,1,0,2.77,2.77A2.77,2.77,0,0,0,14.77,12Zm0,4.155a1.385,1.385,0,1,1,1.385-1.385A1.385,1.385,0,0,1,14.77,16.155Z" transform="translate(-2.772 -3.075)" fill="#414141"/>
    <path id="Path_1373" data-name="Path 1373" d="M20.011,13.288l-.956-.547a6.621,6.621,0,0,0,0-2.078l.956-.547a1.981,1.981,0,0,0,.727-2.708l-.644-1.115A2,2,0,0,0,17.386,5.6l-.956.554A6.974,6.974,0,0,0,14.623,5.1V3.96A1.981,1.981,0,0,0,12.642,2H11.354A1.981,1.981,0,0,0,9.373,3.981V5.054A6.974,6.974,0,0,0,7.566,6.107L6.61,5.553A1.981,1.981,0,0,0,3.9,6.245l-.644,1.15A2,2,0,0,0,3.951,10.1l.956.547a6.621,6.621,0,0,0,0,2.078l-.956.547a1.981,1.981,0,0,0-.693,2.708L3.9,17.1a2,2,0,0,0,2.708.727l.956-.554a6.974,6.974,0,0,0,1.808,1.053v1.094a1.981,1.981,0,0,0,1.981,1.974h1.288a1.981,1.981,0,0,0,1.981-1.981V18.337a6.974,6.974,0,0,0,1.808-1.053l.956.554a1.981,1.981,0,0,0,2.708-.727L20.738,16a2,2,0,0,0-.727-2.708ZM19.533,15.3l-.609,1.115a.6.6,0,0,1-.81.222l-1.821-1.053-.374.339a5.748,5.748,0,0,1-2.161,1.26l-.485.152v2.078a.6.6,0,0,1-.6.6H11.354a.6.6,0,0,1-.6-.6V17.34l-.485-.152a5.748,5.748,0,0,1-2.161-1.26l-.374-.339L5.917,16.64a.6.6,0,0,1-.45.055.582.582,0,0,1-.36-.277L4.463,15.3a.6.6,0,0,1,.215-.838L6.492,13.42l-.111-.5a5.928,5.928,0,0,1-.139-1.247,5.54,5.54,0,0,1,.145-1.247l.1-.5-1.814-1a.6.6,0,0,1-.215-.817l.644-1.115a.6.6,0,0,1,.81-.222L7.739,7.824l.374-.339a5.748,5.748,0,0,1,2.161-1.26l.485-.152V3.995a.6.6,0,0,1,.6-.609h1.288a.6.6,0,0,1,.6.6V6.058l.485.152a5.748,5.748,0,0,1,2.161,1.26l.374.339,1.821-1.053a.6.6,0,0,1,.45-.055.582.582,0,0,1,.36.277l.644,1.115a.6.6,0,0,1-.215.831L17.538,9.95l.111.5a5.928,5.928,0,0,1,.139,1.247,5.541,5.541,0,0,1-.145,1.247l-.1.5,1.78,1.025a.6.6,0,0,1,.215.838Z" transform="translate(0 0)" fill="#414141"/>
  </g>
</svg>
