<svg xmlns="http://www.w3.org/2000/svg" width="19.225" height="16" viewBox="0 0 19.225 16">
  <path id="_9040338_folder_icon" data-name="9040338_folder_icon" d="M.621,4.532.572,3.462A2.462,2.462,0,0,1,3.033,1H7.553a2.461,2.461,0,0,1,1.74.721L10.312,2.74a2.462,2.462,0,0,0,1.74.721h4.9A2.462,2.462,0,0,1,19.4,6.146l-.784,8.615A2.462,2.462,0,0,1,16.17,17H3.434a2.462,2.462,0,0,1-2.45-2.239L.2,6.146A2.449,2.449,0,0,1,.621,4.534Zm2.031.16A1.231,1.231,0,0,0,1.426,6.034l.784,8.615a1.231,1.231,0,0,0,1.225,1.12H16.17a1.231,1.231,0,0,0,1.225-1.12l.784-8.615a1.231,1.231,0,0,0-1.226-1.342Zm5.772-2.1a1.231,1.231,0,0,0-.871-.361H3.033A1.231,1.231,0,0,0,1.8,3.438l.007.171a2.451,2.451,0,0,1,.842-.148H9.293l-.87-.87Z" transform="translate(-0.19 -1)" fill="#414141"/>
</svg>
