<svg id="_9041925_users_icon" data-name="9041925_users_icon" xmlns="http://www.w3.org/2000/svg" width="20.2" height="17" viewBox="0 0 20.2 17">
  <path id="Path_1412" data-name="Path 1412" d="M7.967.5a3.2,3.2,0,0,1,3.2,3.2V5.833a3.2,3.2,0,1,1-6.4,0V3.7A3.2,3.2,0,0,1,7.967.5Zm7.467,14.933v-.777c0-3.4-3.932-5.623-7.467-5.623S.5,11.258.5,14.657v.777A1.067,1.067,0,0,0,1.567,16.5h12.8A1.067,1.067,0,0,0,15.433,15.433Z" transform="translate(0 0)" fill="none" stroke="#414141" stroke-linecap="round" stroke-linejoin="round" stroke-width="1" fill-rule="evenodd"/>
  <path id="Path_1413" data-name="Path 1413" d="M11.521.678a3.2,3.2,0,0,1,2.112,3.01V4.755a3.485,3.485,0,0,1-2.133,3.2,6.14,6.14,0,0,0,1.077-3.734A5.418,5.418,0,0,0,11.521.678Zm5.312,15.81H17.9a1.067,1.067,0,0,0,1.067-1.067v-.777c0-2.315-1.823-4.084-4.1-4.978A6.943,6.943,0,0,1,16.833,16.488Z" transform="translate(0.733 0.012)" fill="#414141" stroke="#414141" stroke-linecap="round" stroke-linejoin="round" stroke-width="1" fill-rule="evenodd"/>
</svg>
