<svg id="logo-2" xmlns="http://www.w3.org/2000/svg" width="75.581" height="20.478" viewBox="0 0 75.581 20.478">
  <g id="Group_3" data-name="Group 3" transform="translate(0 0)">
    <g id="Group_1" data-name="Group 1" transform="translate(1.277)">
      <path id="XMLID_14_" d="M41.553,325.208a2.385,2.385,0,0,0-3.255-.87l-8.7,5.023a2.375,2.375,0,0,1,2.413.154l3.437,1.964,5.219-3.016A2.389,2.389,0,0,0,41.553,325.208Z" transform="translate(-29.6 -324.018)" fill="#69cce1"/>
    </g>
    <path id="XMLID_13_" d="M35.55,377.2l-3.437,1.964a2.375,2.375,0,0,1-2.413.154l5.934,3.437,3.507-1.908a2.375,2.375,0,0,1,2.413-.154Z" transform="translate(-28.409 -369.739)" fill="#82ca9c"/>
    <path id="XMLID_12_" d="M23.853,364.717a2.4,2.4,0,0,0,.323-.182l3.465-1.95L24.2,360.621c-.112-.07-.224-.14-.337-.2h0a2.406,2.406,0,0,0-1-.224,2.371,2.371,0,1,0,.982,4.517Z" transform="translate(-20.5 -355.124)" fill="#47b649"/>
    <g id="Group_2" data-name="Group 2" transform="translate(0.817 13.017)">
      <path id="XMLID_11_" d="M26.641,423.071a2.385,2.385,0,0,0,3.255.87l8.7-5.022a2.376,2.376,0,0,1-2.413-.154L32.744,416.8l-5.219,3.016A2.377,2.377,0,0,0,26.641,423.071Z" transform="translate(-26.322 -416.8)" fill="#7165ad"/>
    </g>
    <path id="XMLID_10_" d="M75.788,400.225a2.409,2.409,0,0,0-.323.182L72,402.357l3.437,1.964c.112.07.224.14.337.2h0a2.406,2.406,0,0,0,1,.224,2.371,2.371,0,1,0-.982-4.517Z" transform="translate(-64.775 -389.34)" fill="#272b6b"/>
    <path id="XMLID_9_" d="M71.4,377.2" transform="translate(-64.259 -369.739)" fill="#69cce1"/>
  </g>
  <g id="Group_4" data-name="Group 4" transform="translate(22.502 1.771)">
    <path id="Path_1" data-name="Path 1" d="M180.017,364.773c.282,0,.512.128.884.487a3.086,3.086,0,0,0,2.242.922c1.114,0,1.819-.487,1.819-1.268,0-.615-.461-1.089-1.345-1.281l-1.678-.384c-1.768-.4-2.6-1.268-2.6-2.677,0-1.793,1.486-2.972,3.779-2.972a4.907,4.907,0,0,1,2.536.64,1.839,1.839,0,0,1,1.05,1.447.741.741,0,0,1-.82.768c-.282,0-.487-.09-.922-.448a2.652,2.652,0,0,0-1.947-.833c-1.05,0-1.691.487-1.691,1.268,0,.628.423,1.012,1.319,1.217l1.78.41c1.729.4,2.536,1.255,2.536,2.677,0,1.857-1.486,3.01-3.919,3.01a5.782,5.782,0,0,1-2.715-.615,1.838,1.838,0,0,1-1.127-1.537A.764.764,0,0,1,180.017,364.773Z" transform="translate(-179.197 -354.18)" fill="#272b6b"/>
    <path id="Path_2" data-name="Path 2" d="M257.638,344.549a1,1,0,0,1-1.037-1.14V332.24c0-.717.371-1.14,1.025-1.14s1.025.423,1.025,1.14v6.481h.1l3.638-3.7a1.248,1.248,0,0,1,.922-.487.827.827,0,0,1,.858.858,1.107,1.107,0,0,1-.384.794l-2.651,2.69,2.984,3.83a1.37,1.37,0,0,1,.359.845.954.954,0,0,1-.948.948,1.136,1.136,0,0,1-.922-.551l-3.01-3.855-.948.909v2.421C258.649,344.139,258.278,344.549,257.638,344.549Z" transform="translate(-246.686 -331.074)" fill="#272b6b"/>
    <path id="Path_3" data-name="Path 3" d="M327.35,370.481c.166,0,.346.038.589.038a1.513,1.513,0,0,0,1.332-1.23c.013-.026.141-.5.141-.551l-3-8.351a1.808,1.808,0,0,1-.115-.615.978.978,0,0,1,1.025-.973c.538,0,.884.32,1.076,1l2.126,6.993h.077l2.152-6.993c.179-.679.525-1,1.05-1a.95.95,0,0,1,.986.961,2.091,2.091,0,0,1-.141.628l-3.1,8.774c-.743,2.113-1.793,2.959-3.561,2.959a1.685,1.685,0,0,1-1.217-.371.745.745,0,0,1-.231-.551A.713.713,0,0,1,327.35,370.481Z" transform="translate(-307.458 -355.226)" fill="#272b6b"/>
    <path id="Path_4" data-name="Path 4" d="M402.62,364.773c.282,0,.512.128.884.487a3.086,3.086,0,0,0,2.241.922c1.114,0,1.819-.487,1.819-1.268,0-.615-.461-1.089-1.345-1.281l-1.678-.384c-1.768-.4-2.6-1.268-2.6-2.677,0-1.793,1.486-2.972,3.779-2.972a4.907,4.907,0,0,1,2.536.64,1.839,1.839,0,0,1,1.05,1.447.741.741,0,0,1-.82.768c-.282,0-.487-.09-.922-.448a2.652,2.652,0,0,0-1.947-.833c-1.05,0-1.691.487-1.691,1.268,0,.628.423,1.012,1.319,1.217l1.78.41c1.729.4,2.536,1.255,2.536,2.677,0,1.857-1.486,3.01-3.919,3.01a5.782,5.782,0,0,1-2.715-.615,1.863,1.863,0,0,1-1.127-1.537A.77.77,0,0,1,402.62,364.773Z" transform="translate(-373.288 -354.18)" fill="#272b6b"/>
    <path id="Path_5" data-name="Path 5" d="M479.5,343.409V332.24c0-.756.41-1.14,1.012-1.14a1,1,0,0,1,1.037,1.14v11.182a1,1,0,0,1-1.037,1.14C479.91,344.549,479.5,344.178,479.5,343.409Z" transform="translate(-441.036 -331.074)" fill="#272b6b"/>
    <path id="Path_6" data-name="Path 6" d="M516.817,330.9a1.161,1.161,0,1,1,0,2.318,1.166,1.166,0,0,1-1.217-1.166A1.148,1.148,0,0,1,516.817,330.9Zm0,13.475c-.615,0-1.025-.384-1.025-1.14v-7.685a1,1,0,0,1,1.025-1.14c.615,0,1.025.384,1.025,1.14v7.685C517.854,344,517.445,344.374,516.817,344.374Z" transform="translate(-472.512 -330.9)" fill="#272b6b"/>
    <path id="Path_7" data-name="Path 7" d="M548.9,343.788h-.589a.807.807,0,0,1-.909-.82c0-.512.333-.82.909-.82h.628v-1.435c0-.7.359-1.114,1-1.114a.974.974,0,0,1,1.012,1.114v1.435h1.127a.823.823,0,1,1,0,1.639h-1.114v5.341c0,.961.243,1.255,1.05,1.255.256,0,.435-.026.64-.026a.632.632,0,0,1,.666.666.837.837,0,0,1-.448.756,2.712,2.712,0,0,1-1.345.269c-1.844,0-2.613-.768-2.613-2.779v-5.482Z" transform="translate(-500.239 -338.486)" fill="#272b6b"/>
  </g>
</svg>
