<svg xmlns="http://www.w3.org/2000/svg" width="50" height="43.867" viewBox="0 0 50 43.867">
  <g id="_5094668_account_group_team_user_icon" data-name="5094668_account_group_team_user_icon" transform="translate(0 -1.796)">
    <circle id="Ellipse_150" data-name="Ellipse 150" cx="6.621" cy="6.621" r="6.621" transform="translate(24.819 3.923)" fill="none" stroke="#4e5aea" stroke-linecap="round" stroke-linejoin="round" stroke-width="4"/>
    <path id="Path_6871" data-name="Path 6871" d="M23.719,18.16h1.988a7.163,7.163,0,0,0-6.966-5.52H9.179A7.179,7.179,0,0,0,9.179,27h5.7a8.839,8.839,0,0,1,8.839-8.839Z" transform="translate(0 5.625)" fill="none" stroke="#959cf2" stroke-linecap="round" stroke-linejoin="round" stroke-width="4"/>
    <path id="Path_6872" data-name="Path 6872" d="M11.151,13.484A4.8,4.8,0,1,0,6.37,8.7a4.8,4.8,0,0,0,4.781,4.781Z" transform="translate(2.809 0)" fill="none" stroke="#959cf2" stroke-linecap="round" stroke-linejoin="round" stroke-width="4"/>
    <rect id="Rectangle_1071" data-name="Rectangle 1071" width="33.12" height="19.879" rx="9.939" transform="translate(14.88 23.785)" fill="none" stroke="#4e5aea" stroke-linecap="round" stroke-linejoin="round" stroke-width="4"/>
  </g>
</svg>
